<svg width="14" height="15" viewBox="0 0 14 15" fill="none" xmlns="http://www.w3.org/2000/svg">
<path d="M7.11839 9.49118H4.15239V4.74559H7.11839V9.49118ZM2.966 4.74559H0V9.49118H2.966V4.74559ZM7.11839 2.966V1.1864C7.11839 0.530913 6.58748 0 5.93199 0H5.33879C4.68331 0 4.15239 0.530913 4.15239 1.1864V2.966H7.11839ZM4.15239 11.2708V13.0504C4.15239 13.7059 4.68331 14.2368 5.33879 14.2368H5.93199C6.58748 14.2368 7.11839 13.7059 7.11839 13.0504V11.2708H4.15239ZM0 11.2708V13.0504C0 13.7059 0.530913 14.2368 1.1864 14.2368H1.7796C2.43508 14.2368 2.966 13.7059 2.966 13.0504V11.2708H0ZM2.966 2.966V1.1864C2.966 0.530913 2.43508 0 1.7796 0H1.1864C0.530913 0 0 0.530913 0 1.1864V2.966H2.966ZM11.3432 4.29298L8.51834 5.19702L10.0785 10.0541L12.9033 9.15009L11.3432 4.29298ZM10.8004 2.59821L10.2119 0.82514C10.012 0.201094 9.34407 -0.142961 8.72003 0.0569471L8.1553 0.237873C7.53125 0.437781 7.1872 1.10572 7.38711 1.72977L7.97556 3.50284L10.8004 2.59821ZM10.6206 11.7489L11.1183 13.4116C11.3182 14.0357 11.9862 14.3797 12.6102 14.1798L13.1749 13.9989C13.799 13.799 14.1431 13.1311 13.9431 12.507L13.4454 10.8443L10.6206 11.7489Z" fill="#2D4CC3"/>
</svg>
